<svg width="487" height="59" viewBox="0 0 487 59" fill="none" xmlns="http://www.w3.org/2000/svg">
<g clip-path="url(#clip0_339_1963)">
<path d="M39.934 29.857C40.2893 29.857 40.5627 30.021 40.754 30.349C40.9727 30.677 41.082 31.128 41.082 31.702C41.082 32.768 40.8223 33.6153 40.303 34.244C37.597 37.5513 34.7133 39.205 31.652 39.205C29.0007 39.205 26.8823 38.18 25.297 36.13C23.7117 34.08 22.919 31.1417 22.919 27.315C22.919 26.3857 22.96 25.4563 23.042 24.527C21.238 24.855 19.27 25.101 17.138 25.265C15.7167 25.3743 14.7463 25.4427 14.227 25.47C13.6803 28.258 12.915 31.6747 11.931 35.72C11.357 38.098 10.2637 39.287 8.651 39.287C6.90167 39.287 6.027 38.4943 6.027 36.909C6.027 36.5537 6.09533 36.0617 6.232 35.433C7.16133 31.6883 7.89933 28.5177 8.446 25.921L6.478 26.003C5.576 26.003 4.92 25.8527 4.51 25.552C4.1 25.224 3.895 24.7047 3.895 23.994C3.895 23.092 4.15467 22.436 4.674 22.026C5.19333 21.5887 6.05433 21.3427 7.257 21.288L9.43 21.206C10.1407 17.352 10.496 14.4137 10.496 12.391C10.496 11.1063 10.3047 10.2317 9.922 9.767C9.53933 9.30233 9.03367 9.07 8.405 9.07C6.49167 9.07 4.33233 10.669 1.927 13.867C1.57167 14.3317 1.17533 14.564 0.738 14.564C0.355333 14.564 0.0273333 14.3863 -0.246 14.031C-0.519333 13.6757 -0.656 13.2247 -0.656 12.678C-0.656 11.8307 -0.314333 10.9287 0.369 9.972C1.57167 8.30467 3.08867 6.938 4.92 5.872C6.75133 4.77866 8.61 4.232 10.496 4.232C12.2727 4.232 13.6393 4.847 14.596 6.077C15.58 7.27966 16.072 9.16566 16.072 11.735C16.072 14.0037 15.744 17.0787 15.088 20.96L19.106 20.755C20.828 20.673 22.304 20.5363 23.534 20.345C24.026 17.3383 24.7777 14.523 25.789 11.899C26.8003 9.275 28.0577 7.143 29.561 5.503C31.0643 3.863 32.7453 3.043 34.604 3.043C35.9707 3.043 37.0503 3.58967 37.843 4.683C38.6357 5.749 39.032 7.15667 39.032 8.906C39.032 15.6847 35.5743 20.386 28.659 23.01C28.577 24.1033 28.536 25.2377 28.536 26.413C28.536 29.283 28.8913 31.3193 29.602 32.522C30.3127 33.7247 31.3103 34.326 32.595 34.326C33.7157 34.326 34.7407 34.039 35.67 33.465C36.5993 32.8637 37.6517 31.8523 38.827 30.431C39.155 30.0483 39.524 29.857 39.934 29.857ZM34.399 6.61C33.7977 6.61 33.1553 7.15667 32.472 8.25C31.816 9.34333 31.1873 10.833 30.586 12.719C29.9847 14.605 29.5063 16.6687 29.151 18.91C31.3377 18.008 32.9503 16.7233 33.989 15.056C35.0277 13.3887 35.547 11.243 35.547 8.619C35.547 7.99033 35.4377 7.49833 35.219 7.143C35.0003 6.78767 34.727 6.61 34.399 6.61ZM61.3741 29.857C61.7295 29.857 62.0028 30.021 62.1941 30.349C62.4128 30.677 62.5221 31.128 62.5221 31.702C62.5221 32.7953 62.2625 33.6427 61.7431 34.244C60.7318 35.474 59.2968 36.6083 57.4381 37.647C55.6068 38.6857 53.6388 39.205 51.5341 39.205C48.6641 39.205 46.4365 38.426 44.8511 36.868C43.2658 35.31 42.4731 33.178 42.4731 30.472C42.4731 28.586 42.8695 26.8367 43.6621 25.224C44.4548 23.584 45.5481 22.2857 46.9421 21.329C48.3635 20.3723 49.9625 19.894 51.7391 19.894C53.3245 19.894 54.5955 20.3723 55.5521 21.329C56.5088 22.2583 56.9871 23.5293 56.9871 25.142C56.9871 27.028 56.3038 28.6543 54.9371 30.021C53.5978 31.3603 51.3155 32.4263 48.0901 33.219C48.7735 34.4763 50.0718 35.105 51.9851 35.105C53.2151 35.105 54.6091 34.6813 56.1671 33.834C57.7525 32.9593 59.1191 31.825 60.2671 30.431C60.5951 30.0483 60.9641 29.857 61.3741 29.857ZM51.0421 23.912C50.0308 23.912 49.1698 24.4997 48.4591 25.675C47.7758 26.8503 47.4341 28.2717 47.4341 29.939V30.021C49.0468 29.6383 50.3178 29.0643 51.2471 28.299C52.1765 27.5337 52.6411 26.6453 52.6411 25.634C52.6411 25.1147 52.4908 24.7047 52.1901 24.404C51.9168 24.076 51.5341 23.912 51.0421 23.912ZM64.0266 39.205C62.332 39.205 60.979 38.59 59.9676 37.36C58.9563 36.13 58.4506 34.5173 58.4506 32.522C58.4506 30.3353 58.9563 28.2717 59.9676 26.331C60.979 24.363 62.3183 22.7913 63.9856 21.616C65.6803 20.4133 67.4706 19.812 69.3566 19.812C69.958 19.812 70.3543 19.935 70.5456 20.181C70.7643 20.3997 70.942 20.8097 71.0786 21.411C71.6526 21.3017 72.254 21.247 72.8826 21.247C74.222 21.247 74.8916 21.7253 74.8916 22.682C74.8916 23.256 74.6866 24.6227 74.2766 26.782C73.648 29.9253 73.3336 32.112 73.3336 33.342C73.3336 33.752 73.4293 34.08 73.6206 34.326C73.8393 34.572 74.1126 34.695 74.4406 34.695C74.96 34.695 75.5886 34.367 76.3266 33.711C77.0646 33.0277 78.0623 31.9343 79.3196 30.431C79.6476 30.0483 80.0166 29.857 80.4266 29.857C80.782 29.857 81.0553 30.021 81.2466 30.349C81.4653 30.677 81.5746 31.128 81.5746 31.702C81.5746 32.7953 81.315 33.6427 80.7956 34.244C79.675 35.638 78.486 36.8133 77.2286 37.77C75.9713 38.7267 74.755 39.205 73.5796 39.205C72.6776 39.205 71.844 38.9043 71.0786 38.303C70.3406 37.6743 69.7803 36.827 69.3976 35.761C67.9763 38.057 66.186 39.205 64.0266 39.205ZM65.5026 35.064C66.104 35.064 66.678 34.7087 67.2246 33.998C67.7713 33.2873 68.1676 32.3443 68.4136 31.169L69.9306 23.625C68.7826 23.6523 67.7166 24.0897 66.7326 24.937C65.776 25.757 65.0106 26.8503 64.4366 28.217C63.8626 29.5837 63.5756 31.0323 63.5756 32.563C63.5756 33.4103 63.7396 34.039 64.0676 34.449C64.423 34.859 64.9013 35.064 65.5026 35.064ZM93.7814 29.857C94.1367 29.857 94.4101 30.021 94.6014 30.349C94.8201 30.677 94.9294 31.128 94.9294 31.702C94.9294 32.7953 94.6697 33.6427 94.1504 34.244C92.9751 35.6927 91.6904 36.8817 90.2964 37.811C88.9297 38.7403 87.3717 39.205 85.6224 39.205C83.2171 39.205 81.4267 38.1117 80.2514 35.925C79.1034 33.7383 78.5294 30.9093 78.5294 27.438C78.5294 24.1033 78.9531 20.304 79.8004 16.04C80.6751 11.776 81.9461 8.11333 83.6134 5.052C85.3081 1.99066 87.3171 0.459998 89.6404 0.459998C90.9524 0.459998 91.9774 1.075 92.7154 2.305C93.4807 3.50767 93.8634 5.24333 93.8634 7.512C93.8634 10.7647 92.9614 14.5367 91.1574 18.828C89.3534 23.1193 86.9071 27.3697 83.8184 31.579C84.0097 32.6997 84.3241 33.506 84.7614 33.998C85.1987 34.4627 85.7727 34.695 86.4834 34.695C87.6041 34.695 88.5881 34.3807 89.4354 33.752C90.2827 33.096 91.3624 31.989 92.6744 30.431C93.0024 30.0483 93.3714 29.857 93.7814 29.857ZM88.7384 4.519C88.1097 4.519 87.3991 5.65333 86.6064 7.922C85.8137 10.1907 85.1167 13.006 84.5154 16.368C83.9141 19.73 83.5861 22.9553 83.5314 26.044C85.4721 22.846 87.0164 19.648 88.1644 16.45C89.3124 13.2247 89.8864 10.2863 89.8864 7.635C89.8864 5.55767 89.5037 4.519 88.7384 4.519ZM109.901 29.857C110.257 29.857 110.53 30.021 110.721 30.349C110.94 30.677 111.049 31.128 111.049 31.702C111.049 32.7953 110.79 33.6427 110.27 34.244C109.095 35.6927 107.81 36.8817 106.416 37.811C105.022 38.7403 103.423 39.205 101.619 39.205C96.0435 39.205 93.2555 35.2827 93.2555 27.438C93.2555 26.2353 93.2965 25.019 93.3785 23.789H91.7795C90.9595 23.789 90.3991 23.6387 90.0985 23.338C89.8251 23.0373 89.6885 22.559 89.6885 21.903C89.6885 20.3723 90.3035 19.607 91.5335 19.607H93.8705C94.3351 16.6003 95.0458 13.8533 96.0025 11.366C96.9591 8.87867 98.1071 6.897 99.4465 5.421C100.813 3.945 102.275 3.207 103.833 3.207C104.981 3.207 105.883 3.71267 106.539 4.724C107.195 5.73533 107.523 7.00633 107.523 8.537C107.523 12.7737 105.747 16.4637 102.193 19.607H106.785C107.223 19.607 107.537 19.7027 107.728 19.894C107.92 20.0853 108.015 20.4407 108.015 20.96C108.015 22.846 106.471 23.789 103.382 23.789H98.3805C98.3258 25.1557 98.2985 26.2217 98.2985 26.987C98.2985 29.8297 98.6265 31.825 99.2825 32.973C99.9658 34.121 101.032 34.695 102.48 34.695C103.656 34.695 104.694 34.3397 105.596 33.629C106.498 32.9183 107.564 31.8523 108.794 30.431C109.122 30.0483 109.491 29.857 109.901 29.857ZM102.726 7.143C102.316 7.143 101.852 7.66233 101.332 8.701C100.84 9.71233 100.362 11.1337 99.8975 12.965C99.4601 14.769 99.0911 16.778 98.7905 18.992C100.403 17.598 101.606 16.04 102.398 14.318C103.218 12.5687 103.628 10.9833 103.628 9.562C103.628 7.94933 103.328 7.143 102.726 7.143ZM130.466 29.857C130.821 29.857 131.095 30.021 131.286 30.349C131.505 30.677 131.614 31.128 131.614 31.702C131.614 32.7953 131.354 33.6427 130.835 34.244C129.578 35.6927 128.279 36.8817 126.94 37.811C125.628 38.7403 124.125 39.205 122.43 39.205C121.036 39.205 119.984 38.8087 119.273 38.016C118.562 37.196 118.207 36.0207 118.207 34.49C118.207 33.7247 118.398 32.358 118.781 30.39C119.136 28.668 119.314 27.479 119.314 26.823C119.314 26.3857 119.164 26.167 118.863 26.167C118.508 26.167 118.002 26.6317 117.346 27.561C116.69 28.463 116.034 29.6657 115.378 31.169C114.722 32.6723 114.189 34.2577 113.779 35.925C113.26 38.1117 111.975 39.205 109.925 39.205C109.105 39.205 108.558 38.918 108.285 38.344C108.039 37.7427 107.916 36.6767 107.916 35.146C107.916 34.2713 107.93 33.5743 107.957 33.055L107.998 29.775C107.998 25.5657 108.422 21.1787 109.269 16.614C110.144 12.0493 111.415 8.22266 113.082 5.134C114.777 2.018 116.799 0.459998 119.15 0.459998C120.407 0.459998 121.419 1.00666 122.184 2.1C122.977 3.166 123.373 4.56 123.373 6.282C123.373 9.04267 122.567 11.9127 120.954 14.892C119.341 17.844 116.717 21.3017 113.082 25.265C113 26.6863 112.959 28.1487 112.959 29.652C113.861 27.3287 114.859 25.4427 115.952 23.994C117.073 22.518 118.166 21.4657 119.232 20.837C120.325 20.2083 121.323 19.894 122.225 19.894C124.002 19.894 124.89 20.7823 124.89 22.559C124.89 23.625 124.589 25.552 123.988 28.34C123.469 30.718 123.209 32.2897 123.209 33.055C123.209 34.1483 123.605 34.695 124.398 34.695C124.945 34.695 125.587 34.367 126.325 33.711C127.09 33.0277 128.102 31.9343 129.359 30.431C129.687 30.0483 130.056 29.857 130.466 29.857ZM118.289 4.519C117.797 4.519 117.25 5.22967 116.649 6.651C116.048 8.045 115.46 9.94467 114.886 12.35C114.339 14.728 113.888 17.3247 113.533 20.14C115.228 18.1447 116.622 15.9717 117.715 13.621C118.836 11.2703 119.396 9.13833 119.396 7.225C119.396 6.35033 119.3 5.68066 119.109 5.216C118.918 4.75133 118.644 4.519 118.289 4.519ZM142.641 19.894C143.27 19.894 143.707 19.976 143.953 20.14C144.199 20.304 144.322 20.5773 144.322 20.96C144.322 21.616 143.967 23.953 143.256 27.971C142.628 31.825 142.259 34.1073 142.149 34.818C141.138 41.8427 139.744 47.405 137.967 51.505C136.191 55.605 133.826 57.655 130.874 57.655C129.48 57.655 128.346 57.2177 127.471 56.343C126.597 55.4957 126.159 54.375 126.159 52.981C126.159 51.6963 126.446 50.3843 127.02 49.045C127.622 47.7057 128.715 46.1613 130.3 44.412C131.913 42.69 134.182 40.7083 137.106 38.467L137.229 37.524C137.421 36.5127 137.639 35.064 137.885 33.178C137.339 35.146 136.573 36.6493 135.589 37.688C134.605 38.6993 133.567 39.205 132.473 39.205C131.243 39.205 130.232 38.6447 129.439 37.524C128.674 36.376 128.291 34.9547 128.291 33.26C128.291 31.21 128.428 29.3377 128.701 27.643C128.975 25.921 129.426 24.1033 130.054 22.19C130.328 21.37 130.71 20.7823 131.202 20.427C131.694 20.0717 132.473 19.894 133.539 19.894C134.141 19.894 134.551 19.9897 134.769 20.181C135.015 20.3723 135.138 20.6593 135.138 21.042C135.138 21.2607 134.988 21.9987 134.687 23.256C134.414 24.2673 134.195 25.183 134.031 26.003C133.813 27.1237 133.621 28.2033 133.457 29.242C133.293 30.2533 133.211 31.087 133.211 31.743C133.211 32.7817 133.498 33.301 134.072 33.301C134.482 33.301 134.988 32.891 135.589 32.071C136.218 31.251 136.874 30.0073 137.557 28.34C138.268 26.6727 138.951 24.6227 139.607 22.19C139.826 21.37 140.154 20.7823 140.591 20.427C141.056 20.0717 141.739 19.894 142.641 19.894ZM131.325 53.678C132.009 53.678 132.774 52.8853 133.621 51.3C134.469 49.7147 135.316 47.077 136.163 43.387C134.059 45.1637 132.528 46.7763 131.571 48.225C130.642 49.701 130.177 50.9857 130.177 52.079C130.177 52.5437 130.259 52.9263 130.423 53.227C130.615 53.5277 130.915 53.678 131.325 53.678ZM195.813 29.857C196.168 29.857 196.441 30.021 196.633 30.349C196.851 30.677 196.961 31.128 196.961 31.702C196.961 32.768 196.701 33.6153 196.182 34.244C194.87 35.8293 193.544 37.0593 192.205 37.934C190.865 38.7813 189.28 39.205 187.449 39.205C185.672 39.205 184.155 38.7267 182.898 37.77C181.668 36.8133 180.492 35.1733 179.372 32.85C178.47 30.9913 177.759 29.6247 177.24 28.75C176.72 27.848 176.201 27.2057 175.682 26.823C175.19 26.4403 174.575 26.208 173.837 26.126C173.727 26.7 173.413 28.504 172.894 31.538C172.675 32.9047 172.538 33.7383 172.484 34.039C172.21 35.7063 171.664 36.991 170.844 37.893C170.024 38.7677 168.78 39.205 167.113 39.205C165.281 39.205 163.655 38.672 162.234 37.606C160.84 36.5127 159.76 35.0093 158.995 33.096C158.229 31.1553 157.847 28.955 157.847 26.495C157.847 21.903 158.639 17.9397 160.225 14.605C161.837 11.2703 164.079 8.72833 166.949 6.979C169.846 5.20233 173.181 4.314 176.953 4.314C179.577 4.314 181.777 4.71033 183.554 5.503C185.33 6.29566 186.642 7.389 187.49 8.783C188.364 10.177 188.802 11.7487 188.802 13.498C188.802 15.0287 188.433 16.532 187.695 18.008C186.984 19.4567 185.904 20.7413 184.456 21.862C183.007 22.9827 181.244 23.8163 179.167 24.363C180.479 24.7183 181.49 25.2923 182.201 26.085C182.911 26.8777 183.622 28.0393 184.333 29.57C185.098 31.21 185.85 32.4127 186.588 33.178C187.353 33.9433 188.228 34.326 189.212 34.326C190.086 34.326 190.92 34.039 191.713 33.465C192.505 32.8637 193.503 31.8523 194.706 30.431C195.034 30.0483 195.403 29.857 195.813 29.857ZM168.179 26.085C167.249 26.085 166.607 25.8663 166.252 25.429C165.924 24.9917 165.76 24.4997 165.76 23.953C165.76 23.297 165.965 22.7777 166.375 22.395C166.812 22.0123 167.304 21.821 167.851 21.821H168.876C169.313 19.1423 169.723 16.8327 170.106 14.892C170.461 13.1153 171.609 12.227 173.55 12.227C175.108 12.227 175.887 12.924 175.887 14.318C175.887 14.6187 175.873 14.851 175.846 15.015L174.616 21.821C176.092 21.739 177.431 21.3837 178.634 20.755C179.864 20.1263 180.834 19.2517 181.545 18.131C182.283 17.0103 182.652 15.7393 182.652 14.318C182.652 12.596 182.064 11.243 180.889 10.259C179.713 9.275 177.991 8.783 175.723 8.783C173.044 8.783 170.693 9.45267 168.671 10.792C166.675 12.104 165.117 14.072 163.997 16.696C162.876 19.2927 162.316 22.4633 162.316 26.208C162.316 27.9573 162.493 29.4607 162.849 30.718C163.204 31.9753 163.641 32.9183 164.161 33.547C164.68 34.1757 165.172 34.49 165.637 34.49C165.992 34.49 166.279 34.3123 166.498 33.957C166.744 33.6017 166.935 33.0277 167.072 32.235L168.179 26.085ZM211.12 29.857C211.476 29.857 211.749 30.021 211.94 30.349C212.159 30.677 212.268 31.128 212.268 31.702C212.268 32.7953 212.009 33.6427 211.489 34.244C210.478 35.474 209.043 36.6083 207.184 37.647C205.353 38.6857 203.385 39.205 201.28 39.205C198.41 39.205 196.183 38.426 194.597 36.868C193.012 35.31 192.219 33.178 192.219 30.472C192.219 28.586 192.616 26.8367 193.408 25.224C194.201 23.584 195.294 22.2857 196.688 21.329C198.11 20.3723 199.709 19.894 201.485 19.894C203.071 19.894 204.342 20.3723 205.298 21.329C206.255 22.2583 206.733 23.5293 206.733 25.142C206.733 27.028 206.05 28.6543 204.683 30.021C203.344 31.3603 201.062 32.4263 197.836 33.219C198.52 34.4763 199.818 35.105 201.731 35.105C202.961 35.105 204.355 34.6813 205.913 33.834C207.499 32.9593 208.865 31.825 210.013 30.431C210.341 30.0483 210.71 29.857 211.12 29.857ZM200.788 23.912C199.777 23.912 198.916 24.4997 198.205 25.675C197.522 26.8503 197.18 28.2717 197.18 29.939V30.021C198.793 29.6383 200.064 29.0643 200.993 28.299C201.923 27.5337 202.387 26.6453 202.387 25.634C202.387 25.1147 202.237 24.7047 201.936 24.404C201.663 24.076 201.28 23.912 200.788 23.912ZM224.469 29.857C224.824 29.857 225.098 30.021 225.289 30.349C225.508 30.677 225.617 31.128 225.617 31.702C225.617 32.7953 225.357 33.6427 224.838 34.244C223.663 35.6927 222.378 36.8817 220.984 37.811C219.617 38.7403 218.059 39.205 216.31 39.205C213.905 39.205 212.114 38.1117 210.939 35.925C209.791 33.7383 209.217 30.9093 209.217 27.438C209.217 24.1033 209.641 20.304 210.488 16.04C211.363 11.776 212.634 8.11333 214.301 5.052C215.996 1.99066 218.005 0.459998 220.328 0.459998C221.64 0.459998 222.665 1.075 223.403 2.305C224.168 3.50767 224.551 5.24333 224.551 7.512C224.551 10.7647 223.649 14.5367 221.845 18.828C220.041 23.1193 217.595 27.3697 214.506 31.579C214.697 32.6997 215.012 33.506 215.449 33.998C215.886 34.4627 216.46 34.695 217.171 34.695C218.292 34.695 219.276 34.3807 220.123 33.752C220.97 33.096 222.05 31.989 223.362 30.431C223.69 30.0483 224.059 29.857 224.469 29.857ZM219.426 4.519C218.797 4.519 218.087 5.65333 217.294 7.922C216.501 10.1907 215.804 13.006 215.203 16.368C214.602 19.73 214.274 22.9553 214.219 26.044C216.16 22.846 217.704 19.648 218.852 16.45C220 13.2247 220.574 10.2863 220.574 7.635C220.574 5.55767 220.191 4.519 219.426 4.519ZM226.946 39.205C225.251 39.205 223.898 38.59 222.887 37.36C221.875 36.13 221.37 34.5173 221.37 32.522C221.37 30.3353 221.875 28.2717 222.887 26.331C223.898 24.363 225.237 22.7913 226.905 21.616C228.599 20.4133 230.39 19.812 232.276 19.812C232.877 19.812 233.273 19.935 233.465 20.181C233.683 20.3997 233.861 20.8097 233.998 21.411C234.572 21.3017 235.173 21.247 235.802 21.247C237.141 21.247 237.811 21.7253 237.811 22.682C237.811 23.256 237.606 24.6227 237.196 26.782C236.567 29.9253 236.253 32.112 236.253 33.342C236.253 33.752 236.348 34.08 236.54 34.326C236.758 34.572 237.032 34.695 237.36 34.695C237.879 34.695 238.508 34.367 239.246 33.711C239.984 33.0277 240.981 31.9343 242.239 30.431C242.567 30.0483 242.936 29.857 243.346 29.857C243.701 29.857 243.974 30.021 244.166 30.349C244.384 30.677 244.494 31.128 244.494 31.702C244.494 32.7953 244.234 33.6427 243.715 34.244C242.594 35.638 241.405 36.8133 240.148 37.77C238.89 38.7267 237.674 39.205 236.499 39.205C235.597 39.205 234.763 38.9043 233.998 38.303C233.26 37.6743 232.699 36.827 232.317 35.761C230.895 38.057 229.105 39.205 226.946 39.205ZM228.422 35.064C229.023 35.064 229.597 34.7087 230.144 33.998C230.69 33.2873 231.087 32.3443 231.333 31.169L232.85 23.625C231.702 23.6523 230.636 24.0897 229.652 24.937C228.695 25.757 227.93 26.8503 227.356 28.217C226.782 29.5837 226.495 31.0323 226.495 32.563C226.495 33.4103 226.659 34.039 226.987 34.449C227.342 34.859 227.82 35.064 228.422 35.064ZM259.447 29.857C259.803 29.857 260.076 30.021 260.267 30.349C260.486 30.677 260.595 31.128 260.595 31.702C260.595 32.7953 260.336 33.6427 259.816 34.244C258.641 35.6927 257.356 36.8817 255.962 37.811C254.568 38.7403 252.969 39.205 251.165 39.205C245.589 39.205 242.801 35.2827 242.801 27.438C242.801 26.2353 242.842 25.019 242.924 23.789H241.325C240.505 23.789 239.945 23.6387 239.644 23.338C239.371 23.0373 239.234 22.559 239.234 21.903C239.234 20.3723 239.849 19.607 241.079 19.607H243.416C243.881 16.6003 244.592 13.8533 245.548 11.366C246.505 8.87867 247.653 6.897 248.992 5.421C250.359 3.945 251.821 3.207 253.379 3.207C254.527 3.207 255.429 3.71267 256.085 4.724C256.741 5.73533 257.069 7.00633 257.069 8.537C257.069 12.7737 255.293 16.4637 251.739 19.607H256.331C256.769 19.607 257.083 19.7027 257.274 19.894C257.466 20.0853 257.561 20.4407 257.561 20.96C257.561 22.846 256.017 23.789 252.928 23.789H247.926C247.872 25.1557 247.844 26.2217 247.844 26.987C247.844 29.8297 248.172 31.825 248.828 32.973C249.512 34.121 250.578 34.695 252.026 34.695C253.202 34.695 254.24 34.3397 255.142 33.629C256.044 32.9183 257.11 31.8523 258.34 30.431C258.668 30.0483 259.037 29.857 259.447 29.857ZM252.272 7.143C251.862 7.143 251.398 7.66233 250.878 8.701C250.386 9.71233 249.908 11.1337 249.443 12.965C249.006 14.769 248.637 16.778 248.336 18.992C249.949 17.598 251.152 16.04 251.944 14.318C252.764 12.5687 253.174 10.9833 253.174 9.562C253.174 7.94933 252.874 7.143 252.272 7.143ZM262.628 17.188C261.48 17.188 260.619 16.9283 260.045 16.409C259.471 15.8623 259.184 15.1107 259.184 14.154C259.184 13.1973 259.553 12.4047 260.291 11.776C261.056 11.12 261.999 10.792 263.12 10.792C264.131 10.792 264.951 11.038 265.58 11.53C266.209 12.022 266.523 12.719 266.523 13.621C266.523 14.7143 266.168 15.589 265.457 16.245C264.746 16.8737 263.803 17.188 262.628 17.188ZM262.3 39.205C260.523 39.205 259.225 38.5763 258.405 37.319C257.612 36.0617 257.216 34.3943 257.216 32.317C257.216 31.087 257.366 29.5153 257.667 27.602C257.995 25.6613 258.405 23.8573 258.897 22.19C259.143 21.3153 259.471 20.714 259.881 20.386C260.291 20.058 260.947 19.894 261.849 19.894C263.243 19.894 263.94 20.3587 263.94 21.288C263.94 21.9713 263.68 23.5567 263.161 26.044C262.505 29.0507 262.177 31.087 262.177 32.153C262.177 32.973 262.286 33.6017 262.505 34.039C262.724 34.4763 263.093 34.695 263.612 34.695C264.104 34.695 264.719 34.3533 265.457 33.67C266.195 32.9867 267.179 31.907 268.409 30.431C268.737 30.0483 269.106 29.857 269.516 29.857C269.871 29.857 270.145 30.021 270.336 30.349C270.555 30.677 270.664 31.128 270.664 31.702C270.664 32.7953 270.404 33.6427 269.885 34.244C267.179 37.5513 264.651 39.205 262.3 39.205ZM288.257 26.413C288.612 26.413 288.886 26.5907 289.077 26.946C289.268 27.3013 289.364 27.7523 289.364 28.299C289.364 29.611 288.968 30.39 288.175 30.636C286.535 31.21 284.731 31.538 282.763 31.62C282.244 33.916 281.219 35.761 279.688 37.155C278.157 38.5217 276.422 39.205 274.481 39.205C272.841 39.205 271.433 38.8087 270.258 38.016C269.11 37.2233 268.235 36.171 267.634 34.859C267.033 33.547 266.732 32.1257 266.732 30.595C266.732 28.5177 267.128 26.6727 267.921 25.06C268.714 23.42 269.807 22.149 271.201 21.247C272.595 20.3177 274.139 19.853 275.834 19.853C277.911 19.853 279.579 20.5773 280.836 22.026C282.121 23.4473 282.872 25.2103 283.091 27.315C284.376 27.233 285.906 26.9597 287.683 26.495C287.902 26.4403 288.093 26.413 288.257 26.413ZM274.809 34.859C275.684 34.859 276.435 34.5037 277.064 33.793C277.72 33.0823 278.157 32.0573 278.376 30.718C277.529 30.144 276.873 29.3923 276.408 28.463C275.971 27.5337 275.752 26.5497 275.752 25.511C275.752 25.0737 275.793 24.6363 275.875 24.199H275.67C274.577 24.199 273.661 24.732 272.923 25.798C272.212 26.8367 271.857 28.3127 271.857 30.226C271.857 31.7293 272.144 32.8773 272.718 33.67C273.319 34.4627 274.016 34.859 274.809 34.859ZM288.756 39.205C287.717 39.205 286.979 38.6583 286.542 37.565C286.132 36.4717 285.927 34.7223 285.927 32.317C285.927 28.7637 286.433 25.388 287.444 22.19C287.69 21.3973 288.086 20.8233 288.633 20.468C289.207 20.0853 290 19.894 291.011 19.894C291.558 19.894 291.94 19.9623 292.159 20.099C292.378 20.2357 292.487 20.4953 292.487 20.878C292.487 21.3153 292.282 22.2993 291.872 23.83C291.599 24.9233 291.38 25.88 291.216 26.7C291.052 27.52 290.915 28.5313 290.806 29.734C291.708 27.3833 292.719 25.47 293.84 23.994C294.961 22.518 296.054 21.4657 297.12 20.837C298.213 20.2083 299.211 19.894 300.113 19.894C301.89 19.894 302.778 20.7823 302.778 22.559C302.778 23.625 302.477 25.552 301.876 28.34C301.357 30.718 301.097 32.2897 301.097 33.055C301.097 34.1483 301.493 34.695 302.286 34.695C302.833 34.695 303.475 34.367 304.213 33.711C304.978 33.0277 305.99 31.9343 307.247 30.431C307.575 30.0483 307.944 29.857 308.354 29.857C308.709 29.857 308.983 30.021 309.174 30.349C309.393 30.677 309.502 31.128 309.502 31.702C309.502 32.7953 309.242 33.6427 308.723 34.244C307.548 35.6927 306.277 36.8817 304.91 37.811C303.571 38.7403 302.04 39.205 300.318 39.205C298.924 39.205 297.872 38.8087 297.161 38.016C296.45 37.196 296.095 36.0207 296.095 34.49C296.095 33.7247 296.286 32.358 296.669 30.39C297.024 28.668 297.202 27.479 297.202 26.823C297.202 26.3857 297.052 26.167 296.751 26.167C296.396 26.167 295.89 26.6317 295.234 27.561C294.605 28.463 293.949 29.6657 293.266 31.169C292.61 32.6723 292.077 34.2577 291.667 35.925C291.366 37.2097 291.011 38.0843 290.601 38.549C290.218 38.9863 289.603 39.205 288.756 39.205ZM313.811 40.107C312.389 40.107 311.296 39.779 310.531 39.123C309.793 38.467 309.424 37.729 309.424 36.909C309.424 36.1983 309.683 35.5833 310.203 35.064C310.722 34.5447 311.487 34.285 312.499 34.285C312.854 34.285 313.264 34.326 313.729 34.408C314.221 34.4627 314.59 34.5037 314.836 34.531C314.808 33.8203 314.644 33.1507 314.344 32.522C314.07 31.8933 313.715 31.292 313.278 30.718C312.84 30.1167 312.43 29.5973 312.048 29.16C311.2 30.7727 310.353 32.112 309.506 33.178C308.686 34.244 307.784 35.2553 306.8 36.212C306.308 36.704 305.788 36.95 305.242 36.95C304.804 36.95 304.449 36.7997 304.176 36.499C303.902 36.171 303.766 35.7747 303.766 35.31C303.766 34.7633 303.957 34.2577 304.34 33.793L304.873 33.137C306.376 31.2783 307.51 29.7477 308.276 28.545C308.74 27.7523 309.287 26.7 309.916 25.388C310.544 24.0487 311.159 22.6683 311.761 21.247C312.28 20.0443 313.36 19.443 315 19.443C315.765 19.443 316.298 19.5113 316.599 19.648C316.899 19.7847 317.05 20.0033 317.05 20.304C317.05 20.468 316.995 20.7277 316.886 21.083C316.776 21.4383 316.626 21.7937 316.435 22.149C315.943 23.133 315.697 23.9667 315.697 24.65C315.697 25.06 315.833 25.511 316.107 26.003C316.407 26.495 316.858 27.11 317.46 27.848C318.334 28.996 318.99 29.98 319.428 30.8C319.892 31.5927 320.125 32.4673 320.125 33.424C320.125 33.6973 320.097 34.08 320.043 34.572C321.382 34.0527 322.954 32.6723 324.758 30.431C325.086 30.0483 325.455 29.857 325.865 29.857C326.22 29.857 326.493 30.021 326.685 30.349C326.903 30.677 327.013 31.128 327.013 31.702C327.013 32.7407 326.753 33.588 326.234 34.244C324.867 35.9387 323.555 37.1003 322.298 37.729C321.068 38.3303 319.537 38.6583 317.706 38.713C316.612 39.6423 315.314 40.107 313.811 40.107ZM346.437 29.857C346.792 29.857 347.066 30.021 347.257 30.349C347.476 30.677 347.585 31.128 347.585 31.702C347.585 32.7953 347.325 33.6427 346.806 34.244C345.549 35.6927 344.25 36.8817 342.911 37.811C341.599 38.7403 340.096 39.205 338.401 39.205C337.007 39.205 335.955 38.8087 335.244 38.016C334.533 37.196 334.178 36.0207 334.178 34.49C334.178 33.7247 334.369 32.358 334.752 30.39C335.107 28.668 335.285 27.479 335.285 26.823C335.285 26.3857 335.135 26.167 334.834 26.167C334.479 26.167 333.973 26.6317 333.317 27.561C332.661 28.463 332.005 29.6657 331.349 31.169C330.693 32.6723 330.16 34.2577 329.75 35.925C329.231 38.1117 327.946 39.205 325.896 39.205C325.076 39.205 324.529 38.918 324.256 38.344C324.01 37.7427 323.887 36.6767 323.887 35.146C323.887 34.2713 323.901 33.5743 323.928 33.055L323.969 29.775C323.969 25.5657 324.393 21.1787 325.24 16.614C326.115 12.0493 327.386 8.22266 329.053 5.134C330.748 2.018 332.77 0.459998 335.121 0.459998C336.378 0.459998 337.39 1.00666 338.155 2.1C338.948 3.166 339.344 4.56 339.344 6.282C339.344 9.04267 338.538 11.9127 336.925 14.892C335.312 17.844 332.688 21.3017 329.053 25.265C328.971 26.6863 328.93 28.1487 328.93 29.652C329.832 27.3287 330.83 25.4427 331.923 23.994C333.044 22.518 334.137 21.4657 335.203 20.837C336.296 20.2083 337.294 19.894 338.196 19.894C339.973 19.894 340.861 20.7823 340.861 22.559C340.861 23.625 340.56 25.552 339.959 28.34C339.44 30.718 339.18 32.2897 339.18 33.055C339.18 34.1483 339.576 34.695 340.369 34.695C340.916 34.695 341.558 34.367 342.296 33.711C343.061 33.0277 344.073 31.9343 345.33 30.431C345.658 30.0483 346.027 29.857 346.437 29.857ZM334.26 4.519C333.768 4.519 333.221 5.22967 332.62 6.651C332.019 8.045 331.431 9.94467 330.857 12.35C330.31 14.728 329.859 17.3247 329.504 20.14C331.199 18.1447 332.593 15.9717 333.686 13.621C334.807 11.2703 335.367 9.13833 335.367 7.225C335.367 6.35033 335.271 5.68066 335.08 5.216C334.889 4.75133 334.615 4.519 334.26 4.519ZM349.633 17.188C348.485 17.188 347.624 16.9283 347.05 16.409C346.476 15.8623 346.189 15.1107 346.189 14.154C346.189 13.1973 346.558 12.4047 347.296 11.776C348.061 11.12 349.004 10.792 350.125 10.792C351.136 10.792 351.956 11.038 352.585 11.53C353.214 12.022 353.528 12.719 353.528 13.621C353.528 14.7143 353.173 15.589 352.462 16.245C351.751 16.8737 350.808 17.188 349.633 17.188ZM349.305 39.205C347.528 39.205 346.23 38.5763 345.41 37.319C344.617 36.0617 344.221 34.3943 344.221 32.317C344.221 31.087 344.371 29.5153 344.672 27.602C345 25.6613 345.41 23.8573 345.902 22.19C346.148 21.3153 346.476 20.714 346.886 20.386C347.296 20.058 347.952 19.894 348.854 19.894C350.248 19.894 350.945 20.3587 350.945 21.288C350.945 21.9713 350.685 23.5567 350.166 26.044C349.51 29.0507 349.182 31.087 349.182 32.153C349.182 32.973 349.291 33.6017 349.51 34.039C349.729 34.4763 350.098 34.695 350.617 34.695C351.109 34.695 351.724 34.3533 352.462 33.67C353.2 32.9867 354.184 31.907 355.414 30.431C355.742 30.0483 356.111 29.857 356.521 29.857C356.876 29.857 357.15 30.021 357.341 30.349C357.56 30.677 357.669 31.128 357.669 31.702C357.669 32.7953 357.409 33.6427 356.89 34.244C354.184 37.5513 351.656 39.205 349.305 39.205ZM370.588 26.495C370.588 28.6543 370.082 30.7043 369.071 32.645C368.087 34.5583 366.761 36.1163 365.094 37.319C363.454 38.5217 361.691 39.1503 359.805 39.205C359.449 44.4803 358.643 48.881 357.386 52.407C356.128 55.9603 354.283 57.737 351.851 57.737C350.375 57.737 349.281 57.204 348.571 56.138C347.86 55.072 347.505 53.596 347.505 51.71C347.505 49.0313 348.12 45.9017 349.35 42.321C350.58 38.7677 352.479 34.8453 355.049 30.554C355.049 26.5633 355.021 23.789 354.967 22.231C354.939 21.4383 355.254 20.8097 355.91 20.345C356.566 19.8803 357.386 19.648 358.37 19.648C358.944 19.648 359.354 19.771 359.6 20.017C359.873 20.2357 360.023 20.6867 360.051 21.37C360.051 22.0533 360.064 22.559 360.092 22.887C360.966 21.7937 361.827 21.0147 362.675 20.55C363.522 20.058 364.424 19.812 365.381 19.812C366.911 19.812 368.155 20.427 369.112 21.657C370.096 22.887 370.588 24.4997 370.588 26.495ZM360.01 35.269C360.994 35.0503 361.896 34.5173 362.716 33.67C363.563 32.7953 364.233 31.7293 364.725 30.472C365.217 29.1873 365.463 27.848 365.463 26.454C365.463 25.634 365.299 25.019 364.971 24.609C364.643 24.1717 364.205 23.953 363.659 23.953C362.675 23.953 361.486 24.9917 360.092 27.069C360.064 28.2717 360.051 30.0347 360.051 32.358C360.051 33.6153 360.037 34.5857 360.01 35.269ZM352.179 53.719C352.917 53.719 353.532 52.1063 354.024 48.881C354.516 45.683 354.83 41.6923 354.967 36.909C353.791 39.6423 352.862 42.2527 352.179 44.74C351.495 47.2273 351.154 49.3183 351.154 51.013C351.154 51.8877 351.263 52.5573 351.482 53.022C351.673 53.4867 351.905 53.719 352.179 53.719ZM380.516 40.107C379.095 40.107 378.001 39.779 377.236 39.123C376.498 38.467 376.129 37.729 376.129 36.909C376.129 36.1983 376.389 35.5833 376.908 35.064C377.427 34.5447 378.193 34.285 379.204 34.285C379.559 34.285 379.969 34.326 380.434 34.408C380.926 34.4627 381.295 34.5037 381.541 34.531C381.514 33.8203 381.35 33.1507 381.049 32.522C380.776 31.8933 380.42 31.292 379.983 30.718C379.546 30.1167 379.136 29.5973 378.753 29.16C377.906 30.7727 377.058 32.112 376.211 33.178C375.391 34.244 374.489 35.2553 373.505 36.212C373.013 36.704 372.494 36.95 371.947 36.95C371.51 36.95 371.154 36.7997 370.881 36.499C370.608 36.171 370.471 35.7747 370.471 35.31C370.471 34.7633 370.662 34.2577 371.045 33.793L371.578 33.137C373.081 31.2783 374.216 29.7477 374.981 28.545C375.473 27.7523 375.965 26.8093 376.457 25.716C376.976 24.6227 377.646 23.133 378.466 21.247C378.985 20.0443 380.065 19.443 381.705 19.443C382.47 19.443 383.003 19.5113 383.304 19.648C383.605 19.7847 383.755 20.0033 383.755 20.304C383.755 20.468 383.7 20.7277 383.591 21.083C383.482 21.4383 383.331 21.7937 383.14 22.149C382.648 23.133 382.402 23.9667 382.402 24.65C382.402 25.06 382.539 25.511 382.812 26.003C383.113 26.495 383.564 27.11 384.165 27.848C385.04 28.996 385.696 29.98 386.133 30.8C386.598 31.5927 386.83 32.4673 386.83 33.424C386.83 34.572 386.557 35.6653 386.01 36.704C385.491 37.7153 384.753 38.5353 383.796 39.164C382.839 39.7927 381.746 40.107 380.516 40.107ZM393.096 39.205C391.893 39.205 390.977 38.877 390.349 38.221C389.747 37.565 389.447 36.704 389.447 35.638C389.447 34.408 389.788 33.424 390.472 32.686C391.182 31.948 392.166 31.579 393.424 31.579C394.626 31.579 395.528 31.8797 396.13 32.481C396.758 33.055 397.073 33.916 397.073 35.064C397.073 36.3213 396.717 37.3327 396.007 38.098C395.296 38.836 394.326 39.205 393.096 39.205ZM407.827 39.205C405.149 39.205 403.058 38.4533 401.554 36.95C400.078 35.4193 399.34 33.4103 399.34 30.923C399.34 28.709 399.778 26.7683 400.652 25.101C401.527 23.4337 402.661 22.149 404.055 21.247C405.449 20.345 406.912 19.894 408.442 19.894C409.946 19.894 411.107 20.345 411.927 21.247C412.775 22.1217 413.198 23.256 413.198 24.65C413.198 25.798 412.939 26.7683 412.419 27.561C411.927 28.3537 411.271 28.75 410.451 28.75C409.932 28.75 409.508 28.627 409.18 28.381C408.88 28.135 408.729 27.7933 408.729 27.356C408.729 27.1647 408.757 26.946 408.811 26.7C408.866 26.454 408.907 26.2763 408.934 26.167C409.071 25.757 409.139 25.3743 409.139 25.019C409.139 24.6637 409.044 24.3903 408.852 24.199C408.688 24.0077 408.442 23.912 408.114 23.912C407.486 23.912 406.898 24.199 406.351 24.773C405.805 25.3197 405.367 26.0713 405.039 27.028C404.711 27.9847 404.547 29.037 404.547 30.185C404.547 33.3557 405.928 34.941 408.688 34.941C409.809 34.941 411.012 34.572 412.296 33.834C413.608 33.0687 414.893 31.9343 416.15 30.431C416.478 30.0483 416.847 29.857 417.257 29.857C417.613 29.857 417.886 30.021 418.077 30.349C418.296 30.677 418.405 31.128 418.405 31.702C418.405 32.7407 418.146 33.588 417.626 34.244C416.342 35.8293 414.797 37.0593 412.993 37.934C411.217 38.7813 409.495 39.205 407.827 39.205ZM436.001 26.413C436.356 26.413 436.63 26.5907 436.821 26.946C437.012 27.3013 437.108 27.7523 437.108 28.299C437.108 29.611 436.712 30.39 435.919 30.636C434.279 31.21 432.475 31.538 430.507 31.62C429.988 33.916 428.963 35.761 427.432 37.155C425.901 38.5217 424.166 39.205 422.225 39.205C420.585 39.205 419.177 38.8087 418.002 38.016C416.854 37.2233 415.979 36.171 415.378 34.859C414.777 33.547 414.476 32.1257 414.476 30.595C414.476 28.5177 414.872 26.6727 415.665 25.06C416.458 23.42 417.551 22.149 418.945 21.247C420.339 20.3177 421.883 19.853 423.578 19.853C425.655 19.853 427.323 20.5773 428.58 22.026C429.865 23.4473 430.616 25.2103 430.835 27.315C432.12 27.233 433.65 26.9597 435.427 26.495C435.646 26.4403 435.837 26.413 436.001 26.413ZM422.553 34.859C423.428 34.859 424.179 34.5037 424.808 33.793C425.464 33.0823 425.901 32.0573 426.12 30.718C425.273 30.144 424.617 29.3923 424.152 28.463C423.715 27.5337 423.496 26.5497 423.496 25.511C423.496 25.0737 423.537 24.6363 423.619 24.199H423.414C422.321 24.199 421.405 24.732 420.667 25.798C419.956 26.8367 419.601 28.3127 419.601 30.226C419.601 31.7293 419.888 32.8773 420.462 33.67C421.063 34.4627 421.76 34.859 422.553 34.859ZM438.632 39.205C436.937 39.205 435.584 38.59 434.573 37.36C433.562 36.13 433.056 34.5173 433.056 32.522C433.056 30.3353 433.562 28.2717 434.573 26.331C435.584 24.363 436.924 22.7913 438.591 21.616C440.286 20.4133 442.076 19.812 443.962 19.812C444.563 19.812 444.96 19.935 445.151 20.181C445.37 20.3997 445.547 20.8097 445.684 21.411C446.258 21.3017 446.859 21.247 447.488 21.247C448.827 21.247 449.497 21.7253 449.497 22.682C449.497 23.256 449.292 24.6227 448.882 26.782C448.253 29.9253 447.939 32.112 447.939 33.342C447.939 33.752 448.035 34.08 448.226 34.326C448.445 34.572 448.718 34.695 449.046 34.695C449.565 34.695 450.194 34.367 450.932 33.711C451.67 33.0277 452.668 31.9343 453.925 30.431C454.253 30.0483 454.622 29.857 455.032 29.857C455.387 29.857 455.661 30.021 455.852 30.349C456.071 30.677 456.18 31.128 456.18 31.702C456.18 32.7953 455.92 33.6427 455.401 34.244C454.28 35.638 453.091 36.8133 451.834 37.77C450.577 38.7267 449.36 39.205 448.185 39.205C447.283 39.205 446.449 38.9043 445.684 38.303C444.946 37.6743 444.386 36.827 444.003 35.761C442.582 38.057 440.791 39.205 438.632 39.205ZM440.108 35.064C440.709 35.064 441.283 34.7087 441.83 33.998C442.377 33.2873 442.773 32.3443 443.019 31.169L444.536 23.625C443.388 23.6523 442.322 24.0897 441.338 24.937C440.381 25.757 439.616 26.8503 439.042 28.217C438.468 29.5837 438.181 31.0323 438.181 32.563C438.181 33.4103 438.345 34.039 438.673 34.449C439.028 34.859 439.507 35.064 440.108 35.064ZM460.679 39.205C458 39.205 455.909 38.4533 454.406 36.95C452.93 35.4193 452.192 33.4103 452.192 30.923C452.192 28.709 452.629 26.7683 453.504 25.101C454.379 23.4337 455.513 22.149 456.907 21.247C458.301 20.345 459.763 19.894 461.294 19.894C462.797 19.894 463.959 20.345 464.779 21.247C465.626 22.1217 466.05 23.256 466.05 24.65C466.05 25.798 465.79 26.7683 465.271 27.561C464.779 28.3537 464.123 28.75 463.303 28.75C462.784 28.75 462.36 28.627 462.032 28.381C461.731 28.135 461.581 27.7933 461.581 27.356C461.581 27.1647 461.608 26.946 461.663 26.7C461.718 26.454 461.759 26.2763 461.786 26.167C461.923 25.757 461.991 25.3743 461.991 25.019C461.991 24.6637 461.895 24.3903 461.704 24.199C461.54 24.0077 461.294 23.912 460.966 23.912C460.337 23.912 459.75 24.199 459.203 24.773C458.656 25.3197 458.219 26.0713 457.891 27.028C457.563 27.9847 457.399 29.037 457.399 30.185C457.399 33.3557 458.779 34.941 461.54 34.941C462.661 34.941 463.863 34.572 465.148 33.834C466.46 33.0687 467.745 31.9343 469.002 30.431C469.33 30.0483 469.699 29.857 470.109 29.857C470.464 29.857 470.738 30.021 470.929 30.349C471.148 30.677 471.257 31.128 471.257 31.702C471.257 32.7407 470.997 33.588 470.478 34.244C469.193 35.8293 467.649 37.0593 465.845 37.934C464.068 38.7813 462.346 39.205 460.679 39.205ZM482.457 19.894C483.331 19.894 483.987 20.1263 484.425 20.591C484.889 21.0283 485.122 21.6843 485.122 22.559C485.122 23.2697 484.971 24.609 484.671 26.577C484.397 28.2443 484.179 29.8297 484.015 31.333C483.851 32.809 483.769 34.4627 483.769 36.294C483.769 37.3327 483.55 38.0843 483.113 38.549C482.703 38.9863 482.019 39.205 481.063 39.205C480.161 39.205 479.505 38.9727 479.095 38.508C478.685 38.0433 478.48 37.3463 478.48 36.417C478.48 35.3237 478.671 33.5197 479.054 31.005C479.382 28.8183 479.546 27.4243 479.546 26.823C479.546 26.3857 479.395 26.167 479.095 26.167C478.739 26.167 478.234 26.6317 477.578 27.561C476.922 28.463 476.266 29.6657 475.61 31.169C474.954 32.6723 474.421 34.2577 474.011 35.925C473.71 37.2097 473.355 38.0843 472.945 38.549C472.562 38.9863 471.947 39.205 471.1 39.205C470.252 39.205 469.624 38.9043 469.214 38.303C468.831 37.6743 468.571 36.7177 468.435 35.433C468.298 34.1483 468.23 32.2623 468.23 29.775C468.23 25.5657 468.653 21.1787 469.501 16.614C470.375 12.0493 471.646 8.22266 473.314 5.134C475.008 2.018 477.031 0.459998 479.382 0.459998C480.639 0.459998 481.65 1.00666 482.416 2.1C483.208 3.166 483.605 4.56 483.605 6.282C483.605 9.04267 482.798 11.9127 481.186 14.892C479.573 17.844 476.949 21.3017 473.314 25.265C473.232 26.6863 473.191 28.1487 473.191 29.652C474.093 27.3287 475.09 25.4427 476.184 23.994C477.304 22.518 478.398 21.4657 479.464 20.837C480.557 20.2083 481.555 19.894 482.457 19.894ZM478.521 4.519C478.029 4.519 477.482 5.22967 476.881 6.651C476.279 8.045 475.692 9.94467 475.118 12.35C474.571 14.728 474.12 17.3247 473.765 20.14C475.459 18.1447 476.853 15.9717 477.947 13.621C479.067 11.2703 479.628 9.13833 479.628 7.225C479.628 6.35033 479.532 5.68066 479.341 5.216C479.149 4.75133 478.876 4.519 478.521 4.519Z" fill="white"/>
</g>
<defs>
<clipPath id="clip0_339_1963">
<rect width="487" height="59" fill="white"/>
</clipPath>
</defs>
</svg>
